HIERARCHY
ROOT Hips
{
	OFFSET 0.000000 83.214638 0.000000
	CHANNELS 6 Xposition Yposition Zposition Xrotation Yrotation Zrotation
	JOINT Pelvis
	{
		OFFSET 0.000000 0.000000 0.000000
		CHANNELS 3 Xrotation Yrotation Zrotation
		JOINT LeftUpLeg
		{
			OFFSET 8.479700 -4.795502 -0.379100
			CHANNELS 3 Xrotation Yrotation Zrotation
			JOINT LeftLeg
			{
				OFFSET 0.024144 -32.555107 0.112900
				CHANNELS 3 Xrotation Yrotation Zrotation
				JOINT LeftFoot
				{
					OFFSET -0.024144 -32.638630 -3.012600
					CHANNELS 3 Xrotation Yrotation Zrotation
					JOINT LeftToeBase
					{
						OFFSET 0.970200 -13.225400 11.864200
						CHANNELS 3 Xrotation Yrotation Zrotation
						End Site
						{
							OFFSET 0.000000 12.319262 0.000000
						}
					}
					JOINT LFootTongue
					{
						OFFSET 1.142400 -1.059800 6.665200
						CHANNELS 3 Xrotation Yrotation Zrotation
						End Site
						{
							OFFSET 0.000000 12.319262 0.000000
						}
					}
				}
				JOINT LeftPantLeg
				{
					OFFSET 0.918482 -16.533964 -2.284700
					CHANNELS 3 Xrotation Yrotation Zrotation
					End Site
					{
						OFFSET 0.350399 24.744368 0.000000
					}
				}
			}
		}
		JOINT RightUpLeg
		{
			OFFSET -8.479700 -4.795502 -0.379100
			CHANNELS 3 Xrotation Yrotation Zrotation
			JOINT RightLeg
			{
				OFFSET -0.023144 -32.555092 0.112900
				CHANNELS 3 Xrotation Yrotation Zrotation
				JOINT RightFoot
				{
					OFFSET 0.023144 -32.638641 -3.012700
					CHANNELS 3 Xrotation Yrotation Zrotation
					JOINT RightToeBase
					{
						OFFSET -0.970200 -13.225400 11.864200
						CHANNELS 3 Xrotation Yrotation Zrotation
						End Site
						{
							OFFSET 0.000000 12.319244 0.000000
						}
					}
					JOINT RFootTongue
					{
						OFFSET -1.142200 -1.059800 6.665200
						CHANNELS 3 Xrotation Yrotation Zrotation
						End Site
						{
							OFFSET 0.000000 12.319243 0.000000
						}
					}
				}
				JOINT RightPantLeg
				{
					OFFSET -0.919482 -16.533978 -2.284800
					CHANNELS 3 Xrotation Yrotation Zrotation
					End Site
					{
						OFFSET -0.350400 24.744419 0.000000
					}
				}
			}
		}
	}
	JOINT Spine
	{
		OFFSET 0.000000 7.722000 1.166200
		CHANNELS 3 Xrotation Yrotation Zrotation
		JOINT Spine1
		{
			OFFSET 0.000000 12.024101 0.248800
			CHANNELS 3 Xrotation Yrotation Zrotation
			JOINT Spine2
			{
				OFFSET 0.000000 11.502998 -0.491200
				CHANNELS 3 Xrotation Yrotation Zrotation
				JOINT Neck
				{
					OFFSET 0.000000 18.430702 -3.123100
					CHANNELS 3 Xrotation Yrotation Zrotation
					JOINT Head
					{
						OFFSET 0.000000 9.051102 1.034000
						CHANNELS 3 Xrotation Yrotation Zrotation
						JOINT HairB
						{
							OFFSET 0.208400 24.786102 24.822300
							CHANNELS 3 Xrotation Yrotation Zrotation
							End Site
							{
								OFFSET 0.000000 32.263779 0.000000
							}
						}
						JOINT HairA
						{
							OFFSET -7.081100 24.428299 23.196600
							CHANNELS 3 Xrotation Yrotation Zrotation
							End Site
							{
								OFFSET 0.000000 32.263779 0.000000
							}
						}
						JOINT Hat
						{
							OFFSET 16.728800 15.048294 -15.439601
							CHANNELS 3 Xrotation Yrotation Zrotation
							End Site
							{
								OFFSET 0.000000 32.263779 0.000000
							}
						}
					}
				}
				JOINT LeftShoulder
				{
					OFFSET 6.197800 13.665199 -4.064700
					CHANNELS 3 Xrotation Yrotation Zrotation
					JOINT LeftArm
					{
						OFFSET 7.778100 -0.187103 -1.709300
						CHANNELS 3 Xrotation Yrotation Zrotation
						JOINT LeftForeArm
						{
							OFFSET 22.049376 0.000000 0.000000
							CHANNELS 3 Xrotation Yrotation Zrotation
							JOINT LeftHand
							{
								OFFSET 23.009392 0.000000 0.000000
								CHANNELS 3 Xrotation Yrotation Zrotation
								JOINT LeftHandThumb1
								{
									OFFSET 3.507191 -2.063065 3.133727
									CHANNELS 3 Xrotation Yrotation Zrotation
									JOINT LeftHandThumb2
									{
										OFFSET 3.101337 -1.790558 1.790558
										CHANNELS 3 Xrotation Yrotation Zrotation
										JOINT LeftHandThumb3
										{
											OFFSET 3.058640 -1.765907 1.765906
											CHANNELS 3 Xrotation Yrotation Zrotation
											End Site
											{
												OFFSET -0.415260 3.926476 -0.049563
											}
										}
									}
								}
								JOINT LeftHandIndex1
								{
									OFFSET 11.334419 -0.901459 3.706815
									CHANNELS 3 Xrotation Yrotation Zrotation
									JOINT LeftHandIndex2
									{
										OFFSET 3.283112 0.000000 0.000000
										CHANNELS 3 Xrotation Yrotation Zrotation
										JOINT LeftHandIndex3
										{
											OFFSET 3.323853 0.000000 0.000000
											CHANNELS 3 Xrotation Yrotation Zrotation
											End Site
											{
												OFFSET -1.135597 3.097809 0.402452
											}
										}
									}
								}
								JOINT LeftHandMiddle1
								{
									OFFSET 11.335861 0.000000 0.000000
									CHANNELS 3 Xrotation Yrotation Zrotation
									JOINT LeftHandMiddle2
									{
										OFFSET 3.410492 0.000000 0.000000
										CHANNELS 3 Xrotation Yrotation Zrotation
										JOINT LeftHandMiddle3
										{
											OFFSET 3.312172 0.000000 0.000000
											CHANNELS 3 Xrotation Yrotation Zrotation
											End Site
											{
												OFFSET -1.150200 3.080154 0.400270
											}
										}
									}
								}
								JOINT LeftHandRing1
								{
									OFFSET 11.514786 -0.013176 -3.003090
									CHANNELS 3 Xrotation Yrotation Zrotation
									JOINT LeftHandRing2
									{
										OFFSET 3.053307 0.000000 0.000000
										CHANNELS 3 Xrotation Yrotation Zrotation
										JOINT LeftHandRing3
										{
											OFFSET 3.295807 0.000000 0.000000
											CHANNELS 3 Xrotation Yrotation Zrotation
											End Site
											{
												OFFSET -1.281006 3.013344 0.375733
											}
										}
									}
								}
								JOINT LeftHandPinky1
								{
									OFFSET 10.518692 -0.960396 -5.730441
									CHANNELS 3 Xrotation Yrotation Zrotation
									JOINT LeftHandPinky2
									{
										OFFSET 2.861649 0.000000 0.000000
										CHANNELS 3 Xrotation Yrotation Zrotation
										JOINT LeftHandPinky3
										{
											OFFSET 2.863380 0.000000 0.000000
											CHANNELS 3 Xrotation Yrotation Zrotation
											End Site
											{
												OFFSET -0.843597 2.711159 0.369971
											}
										}
									}
								}
							}
							JOINT LSleeve
							{
								OFFSET 6.676277 -0.344902 -1.011730
								CHANNELS 3 Xrotation Yrotation Zrotation
								End Site
								{
									OFFSET 0.000000 14.885353 0.000000
								}
							}
						}
					}
				}
				JOINT RightShoulder
				{
					OFFSET -6.197800 13.665199 -4.064700
					CHANNELS 3 Xrotation Yrotation Zrotation
					JOINT RightArm
					{
						OFFSET -7.778100 -0.187103 -1.709300
						CHANNELS 3 Xrotation Yrotation Zrotation
						JOINT RightForeArm
						{
							OFFSET -22.049376 0.000000 0.000000
							CHANNELS 3 Xrotation Yrotation Zrotation
							JOINT RightHand
							{
								OFFSET -23.009392 0.000000 0.000000
								CHANNELS 3 Xrotation Yrotation Zrotation
								JOINT RightHandThumb1
								{
									OFFSET -3.507191 -2.063065 3.133727
									CHANNELS 3 Xrotation Yrotation Zrotation
									JOINT RightHandThumb2
									{
										OFFSET -3.101337 -1.790558 1.790558
										CHANNELS 3 Xrotation Yrotation Zrotation
										JOINT RightHandThumb3
										{
											OFFSET -3.058640 -1.765907 1.765906
											CHANNELS 3 Xrotation Yrotation Zrotation
											End Site
											{
												OFFSET 0.415260 3.926476 -0.049563
											}
										}
									}
								}
								JOINT RightHandIndex1
								{
									OFFSET -11.334419 -0.901459 3.706815
									CHANNELS 3 Xrotation Yrotation Zrotation
									JOINT RightHandIndex2
									{
										OFFSET -3.283112 0.000000 0.000000
										CHANNELS 3 Xrotation Yrotation Zrotation
										JOINT RightHandIndex3
										{
											OFFSET -3.323853 0.000000 0.000000
											CHANNELS 3 Xrotation Yrotation Zrotation
											End Site
											{
												OFFSET 1.135597 3.097809 0.402452
											}
										}
									}
								}
								JOINT RightHandMiddle1
								{
									OFFSET -11.335861 0.000000 0.000000
									CHANNELS 3 Xrotation Yrotation Zrotation
									JOINT RightHandMiddle2
									{
										OFFSET -3.410492 0.000000 0.000000
										CHANNELS 3 Xrotation Yrotation Zrotation
										JOINT RightHandMiddle3
										{
											OFFSET -3.312172 0.000000 0.000000
											CHANNELS 3 Xrotation Yrotation Zrotation
											End Site
											{
												OFFSET 1.150200 3.080154 0.400270
											}
										}
									}
								}
								JOINT RightHandRing1
								{
									OFFSET -11.514786 -0.013176 -3.003090
									CHANNELS 3 Xrotation Yrotation Zrotation
									JOINT RightHandRing2
									{
										OFFSET -3.053307 0.000000 0.000000
										CHANNELS 3 Xrotation Yrotation Zrotation
										JOINT RightHandRing3
										{
											OFFSET -3.295807 0.000000 0.000000
											CHANNELS 3 Xrotation Yrotation Zrotation
											End Site
											{
												OFFSET 1.281006 3.013344 0.375733
											}
										}
									}
								}
								JOINT RightHandPinky1
								{
									OFFSET -10.518692 -0.960396 -5.730441
									CHANNELS 3 Xrotation Yrotation Zrotation
									JOINT RightHandPinky2
									{
										OFFSET -2.861649 0.000000 0.000000
										CHANNELS 3 Xrotation Yrotation Zrotation
										JOINT RightHandPinky3
										{
											OFFSET -2.863380 0.000000 0.000000
											CHANNELS 3 Xrotation Yrotation Zrotation
											End Site
											{
												OFFSET 0.843597 2.711159 0.369971
											}
										}
									}
								}
							}
							JOINT RSleeve
							{
								OFFSET -6.676277 -0.344902 -1.011730
								CHANNELS 3 Xrotation Yrotation Zrotation
								End Site
								{
									OFFSET 0.000000 14.885353 0.000000
								}
							}
						}
					}
				}
				JOINT Backpack
				{
					OFFSET 0.000000 -2.471497 36.677502
					CHANNELS 3 Xrotation Yrotation Zrotation
					End Site
					{
						OFFSET 0.000000 20.427315 0.000000
					}
				}
				JOINT Hood
				{
					OFFSET 0.000000 18.754097 -10.431000
					CHANNELS 3 Xrotation Yrotation Zrotation
					JOINT Hood1
					{
						OFFSET 0.000000 -5.011002 -7.685901
						CHANNELS 3 Xrotation Yrotation Zrotation
						End Site
						{
							OFFSET 0.000000 9.175140 0.000000
						}
					}
				}
				JOINT LHoodieString
				{
					OFFSET 5.250500 16.397697 3.089900
					CHANNELS 3 Xrotation Yrotation Zrotation
					JOINT LHoodieString1
					{
						OFFSET 0.257700 -6.364304 3.694600
						CHANNELS 3 Xrotation Yrotation Zrotation
						JOINT LHoodieString2
						{
							OFFSET 0.000000 -9.643799 2.679100
							CHANNELS 3 Xrotation Yrotation Zrotation
							End Site
							{
								OFFSET 0.000000 10.009018 0.000000
							}
						}
					}
				}
				JOINT RHoodieString
				{
					OFFSET -5.250500 16.397697 3.089900
					CHANNELS 3 Xrotation Yrotation Zrotation
					JOINT RHoodieString1
					{
						OFFSET -0.257700 -6.364304 3.694600
						CHANNELS 3 Xrotation Yrotation Zrotation
						JOINT RHoodieString2
						{
							OFFSET 0.000000 -9.643799 2.679100
							CHANNELS 3 Xrotation Yrotation Zrotation
							End Site
							{
								OFFSET 0.000000 10.009018 0.000000
							}
						}
					}
				}
			}
			JOINT LBackpack_Strap
			{
				OFFSET 15.223200 -7.719803 -6.610900
				CHANNELS 3 Xrotation Yrotation Zrotation
				End Site
				{
					OFFSET 0.000000 16.040596 0.000000
				}
			}
			JOINT RBackpack_Strap
			{
				OFFSET -15.223000 -7.719803 -6.610900
				CHANNELS 3 Xrotation Yrotation Zrotation
				End Site
				{
					OFFSET 0.000000 16.040596 0.000000
				}
			}
		}
	}
	JOINT BoyFacialAnim_Joint
	{
		OFFSET 1.000000 -82.208099 -1.550900
		CHANNELS 3 Xrotation Yrotation Zrotation
		End Site
		{
			OFFSET 0.000000 30.012791 0.000000
		}
	}
}
MOTION
Frames: 4
Frame Time: 0.016667
-0.105715 82.535873 0.075964 2.828151 -5.510053 -1.373090 0.000000 0.000001 0.000000 -17.934533 16.747561 11.531500 17.658308 9.841550 4.661962 -2.123161 3.101564 -10.515966 0.000000 -0.000000 0.000000 0.000000 -0.000000 0.000000 -0.000000 0.000001 -0.000001 -15.397944 -21.189697 -5.349410 17.937890 9.895026 -2.988349 -6.002397 1.065648 4.224959 -0.000000 -0.000002 -0.000000 -0.000000 -0.000002 -0.000000 -0.000001 0.000001 -0.000000 -0.410454 -1.028107 1.226709 -1.124193 -0.763622 0.960462 -1.125714 -0.723789 0.985441 -4.895965 1.540609 -0.449521 -0.934612 6.880853 -0.774390 -0.000001 0.000000 0.000000 -0.000001 0.000000 0.000000 -0.000001 0.000000 0.000000 -1.469254 10.517227 -4.984829 43.879632 -68.213687 -24.791777 0.000000 -21.268111 -0.000006 -25.251734 7.009046 0.097471 -3.405766 19.076295 14.453268 15.249475 14.620652 -5.800664 -0.000002 -0.000000 -0.000002 0.380311 2.260834 -19.095168 0.158432 1.471510 -12.290087 0.000001 -0.000001 -0.000002 0.379675 2.259013 -19.079145 0.158859 1.473387 -12.306094 0.000000 0.000001 -0.000001 0.380311 2.260835 -19.095179 0.158432 1.471503 -12.290078 -0.000000 -0.000001 0.000001 1.696010 6.096986 -18.680651 0.153586 -2.584200 -12.789184 -0.000000 -0.000000 0.000001 0.000000 0.000000 0.000002 3.669362 5.665986 1.464133 -1.701518 36.578661 65.584952 -0.000006 22.959763 0.000013 -19.091383 -11.054780 9.870831 1.944056 -20.994845 -11.060307 4.637204 -8.634123 -0.225382 0.000001 -0.000001 0.000001 0.194546 -1.636482 13.558114 0.162592 -1.497876 12.390198 -0.000001 -0.000002 -0.000000 0.194539 -1.636479 13.558137 0.162593 -1.497883 12.390177 0.000001 0.000002 0.000002 0.194542 -1.636473 13.558137 0.162589 -1.497883 12.390182 0.000001 -0.000001 0.000002 0.194544 -1.636468 13.558129 0.162593 -1.497883 12.390168 0.000000 -0.000001 0.000000 0.000002 0.000001 -0.000001 0.000000 0.000000 0.000000 0.000000 0.000000 0.000000 0.000000 0.000000 0.000000 0.000000 0.000000 0.000000 0.000000 0.000000 0.000000 0.000000 0.000001 0.000000 0.000000 0.000000 0.000000 0.000000 0.000000 0.000000 0.000000 0.000001 0.000000 0.000000 -0.000000 -0.000000 0.000000 -0.000000 -0.000000 0.000000 0.000001 0.000000 
-0.086945 82.535645 0.069184 2.805639 -5.469306 -1.350324 0.000000 0.000000 -0.000000 -17.912704 16.746244 11.504737 17.666124 9.836559 4.618348 -2.129796 3.074471 -10.471991 -0.000000 0.000000 -0.000000 -0.000000 0.000000 0.000000 0.000001 0.000001 -0.000001 -15.411316 -21.214738 -5.415813 17.965399 9.894609 -2.978209 -6.010583 1.069849 4.232657 -0.000000 0.000002 0.000000 -0.000000 0.000002 0.000000 0.000000 0.000001 -0.000000 -0.420025 -1.068211 1.223020 -1.133012 -0.794374 0.957289 -1.134493 -0.754700 0.983290 -4.912533 1.560737 -0.428862 -0.893665 7.011523 -0.803163 -0.000000 0.000000 0.000000 -0.000000 0.000000 0.000000 -0.000000 0.000000 0.000000 -1.470420 10.513382 -4.967266 43.640220 -68.242831 -25.097592 -0.000024 -21.297093 0.000000 -25.352240 7.076673 0.079871 -3.405760 19.076295 14.453263 15.249478 14.620650 -5.800663 -0.000001 -0.000002 -0.000002 0.380310 2.260835 -19.095170 0.158432 1.471508 -12.290084 -0.000000 -0.000001 -0.000002 0.379676 2.259013 -19.079146 0.158856 1.473387 -12.306094 0.000001 0.000000 0.000000 0.380311 2.260836 -19.095174 0.158427 1.471506 -12.290081 0.000001 -0.000000 -0.000000 1.696012 6.096985 -18.680651 0.153586 -2.584203 -12.789186 0.000001 0.000001 -0.000000 -0.000000 0.000001 -0.000001 3.665458 5.656877 1.475269 -1.703461 36.697541 65.596727 -0.000002 22.913181 0.000005 -18.957492 -10.909253 10.116179 1.959303 -20.982039 -11.038613 4.637214 -8.634128 -0.225413 0.000003 -0.000001 -0.000000 0.194549 -1.636470 13.558099 0.162595 -1.497882 12.390203 -0.000005 -0.000000 0.000004 0.194544 -1.636467 13.558101 0.162595 -1.497881 12.390195 0.000002 0.000001 0.000000 0.194549 -1.636463 13.558097 0.162590 -1.497887 12.390204 -0.000001 -0.000002 0.000002 0.194543 -1.636459 13.558107 0.162601 -1.497895 12.390177 0.000002 -0.000001 -0.000002 0.000002 0.000000 -0.000001 -0.000000 0.000001 -0.000000 -0.000000 0.000001 -0.000000 -0.000000 0.000001 -0.000000 -0.000000 0.000001 -0.000000 -0.000000 0.000001 -0.000000 0.000000 0.000001 0.000000 -0.000000 0.000001 -0.000000 -0.000000 0.000001 -0.000000 0.000000 0.000001 0.000000 -0.000000 0.000002 -0.000000 -0.000000 0.000002 -0.000000 0.000000 0.000000 -0.000000 
-0.066558 82.534554 0.062334 2.785842 -5.431574 -1.319387 0.000000 -0.000001 -0.000000 -17.890972 16.748653 11.466487 17.673693 9.831545 4.579001 -2.135934 3.048850 -10.428116 0.000000 0.000000 -0.000000 0.000000 0.000000 0.000000 -0.000000 -0.000003 0.000000 -15.440780 -21.241086 -5.496425 18.008265 9.894230 -2.968162 -6.026481 1.080453 4.241046 -0.000000 -0.000002 0.000000 -0.000000 -0.000002 0.000000 -0.000000 -0.000001 0.000000 -0.425003 -1.105867 1.216207 -1.138106 -0.823448 0.951492 -1.139511 -0.784102 0.978433 -4.937642 1.583682 -0.410673 -0.868417 7.152527 -0.837619 -0.000001 0.000000 -0.000000 -0.000001 0.000000 -0.000000 -0.000001 0.000000 -0.000000 -1.471644 10.508766 -4.946810 43.432097 -68.283088 -25.363709 0.000011 -21.330153 0.000005 -25.465244 7.139504 0.050431 -3.405768 19.076297 14.453264 15.249478 14.620647 -5.800667 0.000001 -0.000003 -0.000003 0.380314 2.260834 -19.095172 0.158430 1.471510 -12.290086 0.000000 0.000001 -0.000005 0.379671 2.259013 -19.079143 0.158856 1.473386 -12.306093 0.000002 0.000001 0.000002 0.380310 2.260835 -19.095179 0.158432 1.471504 -12.290081 -0.000000 -0.000002 -0.000001 1.696007 6.096986 -18.680651 0.153588 -2.584203 -12.789182 0.000002 0.000000 -0.000002 0.000001 -0.000001 0.000003 3.663050 5.650921 1.476512 -1.717214 36.859580 65.610340 -0.000019 22.842784 0.000006 -18.751861 -10.780438 10.391288 2.004049 -20.944346 -10.974921 4.637205 -8.634127 -0.225406 0.000002 -0.000001 -0.000001 0.194547 -1.636480 13.558116 0.162604 -1.497876 12.390209 0.000001 0.000003 -0.000001 0.194547 -1.636476 13.558123 0.162597 -1.497884 12.390192 0.000002 0.000000 0.000002 0.194553 -1.636473 13.558123 0.162601 -1.497878 12.390202 -0.000001 -0.000001 0.000000 0.194549 -1.636472 13.558125 0.162599 -1.497880 12.390197 -0.000000 0.000001 -0.000001 -0.000000 -0.000002 0.000002 -0.000000 -0.000000 0.000000 -0.000000 -0.000000 0.000000 -0.000000 -0.000000 0.000000 -0.000000 -0.000000 0.000000 -0.000000 -0.000000 0.000000 -0.000000 0.000000 0.000000 -0.000000 -0.000000 0.000000 -0.000000 -0.000000 0.000000 -0.000000 0.000000 0.000000 -0.000000 -0.000000 -0.000000 -0.000000 -0.000000 -0.000000 0.000000 -0.000001 -0.000000 
-0.042325 82.532318 0.055564 2.774331 -5.403635 -1.274757 -0.000000 0.000000 -0.000000 -17.871337 16.769013 11.408508 17.674887 9.827077 4.550870 -2.142753 3.020615 -10.385746 0.000000 0.000000 0.000000 0.000000 0.000000 0.000000 0.000000 0.000000 -0.000000 -15.499782 -21.258274 -5.598557 18.073901 9.893729 -2.957425 -6.049231 1.095940 4.250813 0.000000 0.000000 0.000000 0.000000 0.000000 0.000000 -0.000000 0.000000 -0.000000 -0.423506 -1.139207 1.205159 -1.138050 -0.849447 0.942093 -1.139338 -0.810645 0.969838 -4.977105 1.608951 -0.396729 -0.867554 7.298594 -0.878809 -0.000000 -0.000000 0.000000 -0.000000 -0.000000 0.000000 -0.000000 -0.000000 0.000000 -1.472791 10.501847 -4.921265 43.262831 -68.342272 -25.576251 -0.000020 -21.363963 -0.000030 -25.588651 7.196870 -0.002524 -3.405768 19.076297 14.453269 15.249476 14.620648 -5.800667 -0.000001 -0.000000 -0.000001 0.380308 2.260832 -19.095170 0.158427 1.471509 -12.290084 0.000001 0.000001 0.000000 0.379669 2.259011 -19.079145 0.158858 1.473387 -12.306091 0.000003 0.000001 0.000000 0.380310 2.260832 -19.095174 0.158429 1.471506 -12.290081 -0.000002 -0.000002 0.000001 1.696007 6.096983 -18.680649 0.153585 -2.584202 -12.789184 -0.000000 -0.000001 0.000001 0.000001 0.000002 -0.000001 3.662694 5.649602 1.468054 -1.746187 37.070678 65.621575 -0.000015 22.738562 0.000017 -18.460275 -10.670046 10.687675 2.076843 -20.882760 -10.871364 4.637202 -8.634125 -0.225403 0.000001 0.000001 0.000001 0.194544 -1.636468 13.558122 0.162601 -1.497874 12.390202 -0.000001 0.000001 0.000002 0.194551 -1.636472 13.558115 0.162598 -1.497869 12.390209 -0.000001 -0.000000 -0.000000 0.194552 -1.636466 13.558111 0.162592 -1.497871 12.390219 -0.000001 0.000000 0.000002 0.194544 -1.636471 13.558115 0.162601 -1.497872 12.390212 -0.000000 -0.000000 -0.000002 0.000002 -0.000001 0.000001 0.000000 -0.000000 -0.000000 0.000000 -0.000000 -0.000000 0.000000 -0.000000 -0.000000 0.000000 -0.000000 -0.000000 0.000000 -0.000000 -0.000000 0.000000 0.000001 -0.000000 0.000000 -0.000000 -0.000000 0.000000 -0.000000 -0.000000 0.000000 0.000001 -0.000000 -0.000000 -0.000000 0.000000 -0.000000 -0.000000 0.000000 -0.000000 0.000000 -0.000000 
